<?xml version="1.0" encoding="UTF-8" standalone="no"?>
<!-- Created with Inkscape (http://www.inkscape.org/) -->

<svg
   xmlns:dc="http://purl.org/dc/elements/1.1/"
   xmlns:cc="http://creativecommons.org/ns#"
   xmlns:rdf="http://www.w3.org/1999/02/22-rdf-syntax-ns#"
   xmlns:svg="http://www.w3.org/2000/svg"
   xmlns="http://www.w3.org/2000/svg"
   xmlns:sodipodi="http://sodipodi.sourceforge.net/DTD/sodipodi-0.dtd"
   xmlns:inkscape="http://www.inkscape.org/namespaces/inkscape"
   version="1.1"
   id="svg93"
   xml:space="preserve"
   width="212.28133"
   height="195.86667"
   viewBox="0 0 212.28133 195.86667"
   sodipodi:docname="dr-logo.svg"
   inkscape:version="0.92.3 (2405546, 2018-03-11)"><metadata
     id="metadata99"><rdf:RDF><cc:Work
         rdf:about=""><dc:format>image/svg+xml</dc:format><dc:type
           rdf:resource="http://purl.org/dc/dcmitype/StillImage" /><dc:title></dc:title></cc:Work></rdf:RDF></metadata><defs
     id="defs97"><clipPath
       clipPathUnits="userSpaceOnUse"
       id="clipPath125"><path
         d="M 0,146.9 H 159.211 V 0 H 0 Z"
         id="path123"
         inkscape:connector-curvature="0" /></clipPath></defs><sodipodi:namedview
     pagecolor="#ffffff"
     bordercolor="#666666"
     borderopacity="1"
     objecttolerance="10"
     gridtolerance="10"
     guidetolerance="10"
     inkscape:pageopacity="0"
     inkscape:pageshadow="2"
     inkscape:window-width="2568"
     inkscape:window-height="1024"
     id="namedview95"
     showgrid="false"
     inkscape:zoom="1.2049013"
     inkscape:cx="106.14066"
     inkscape:cy="97.933334"
     inkscape:window-x="0"
     inkscape:window-y="32"
     inkscape:window-maximized="0"
     inkscape:current-layer="g101" /><g
     id="g101"
     inkscape:groupmode="layer"
     inkscape:label="Logo - Graphic Only CS6 Compatible"
     transform="matrix(1.3333333,0,0,-1.3333333,0,195.86667)"><path
       d="m 71.994,75.397 h -56.82 v 56.819 h 56.82 z"
       style="fill:#58595b;fill-opacity:1;fill-rule:nonzero;stroke:none"
       id="path103"
       inkscape:connector-curvature="0" /><path
       d="m 68.522,78.867 h -56.82 v 56.82 h 56.82 z"
       style="fill:#ffffff;fill-opacity:1;fill-rule:nonzero;stroke:#58595b;stroke-width:1.64999998;stroke-linecap:butt;stroke-linejoin:miter;stroke-miterlimit:10;stroke-dasharray:none;stroke-opacity:1"
       id="path105"
       inkscape:connector-curvature="0" /><path
       d="m 138.423,75.397 h -56.82 v 56.819 h 56.82 z"
       style="fill:#58595b;fill-opacity:1;fill-rule:nonzero;stroke:none"
       id="path107"
       inkscape:connector-curvature="0" /><path
       d="m 134.953,78.867 h -56.82 v 56.82 h 56.82 z"
       style="fill:#ffffff;fill-opacity:1;fill-rule:nonzero;stroke:#58595b;stroke-width:1.64999998;stroke-linecap:butt;stroke-linejoin:miter;stroke-miterlimit:10;stroke-dasharray:none;stroke-opacity:1"
       id="path109"
       inkscape:connector-curvature="0" /><path
       d="m 82.321,8.933 h -56.82 v 56.82 h 56.82 z"
       style="fill:#58595b;fill-opacity:1;fill-rule:nonzero;stroke:none"
       id="path111"
       inkscape:connector-curvature="0" /><path
       d="M 78.85,12.403 H 22.03 v 56.82 h 56.82 z"
       style="fill:#ffffff;fill-opacity:1;fill-rule:nonzero;stroke:#58595b;stroke-width:1.64999998;stroke-linecap:butt;stroke-linejoin:miter;stroke-miterlimit:10;stroke-dasharray:none;stroke-opacity:1"
       id="path113"
       inkscape:connector-curvature="0" /><path
       d="m 148.751,8.933 h -56.82 v 56.82 h 56.82 z"
       style="fill:#58595b;fill-opacity:1;fill-rule:nonzero;stroke:none"
       id="path115"
       inkscape:connector-curvature="0" /><path
       d="M 145.28,12.403 H 88.46 v 56.82 h 56.82 z"
       style="fill:#ffffff;fill-opacity:1;fill-rule:nonzero;stroke:#58595b;stroke-width:1.64999998;stroke-linecap:butt;stroke-linejoin:miter;stroke-miterlimit:10;stroke-dasharray:none;stroke-opacity:1"
       id="path117"
       inkscape:connector-curvature="0" /><g
       id="g119"><g
         id="g121"
         clip-path="url(#clipPath125)"><g
           id="g127"
           transform="translate(60.54,107.2774)"><path
             d="m 0,0 c 0,-11.282 -9.146,-20.428 -20.428,-20.428 -11.281,0 -20.427,9.146 -20.427,20.428 0,11.281 9.146,20.427 20.427,20.427 C -9.146,20.427 0,11.281 0,0 Z"
             style="fill:none;stroke:#231f20;stroke-width:1.64999998;stroke-linecap:butt;stroke-linejoin:miter;stroke-miterlimit:10;stroke-dasharray:none;stroke-opacity:1"
             id="path129"
             inkscape:connector-curvature="0" /></g><g
           id="g131"
           transform="translate(46.2016,107.2774)"><path
             d="m 0,0 c 0,-3.363 -2.726,-6.09 -6.089,-6.09 -3.363,0 -6.09,2.727 -6.09,6.09 0,3.363 2.727,6.089 6.09,6.089 C -2.726,6.089 0,3.363 0,0"
             style="fill:#950915;fill-opacity:1;fill-rule:nonzero;stroke:none"
             id="path133"
             inkscape:connector-curvature="0" /></g><g
           id="g135"
           transform="translate(48.1269,116.7422)"><path
             d="m 0,0 c 0,-1.063 -0.862,-1.925 -1.925,-1.925 -1.063,0 -1.925,0.862 -1.925,1.925 0,1.063 0.862,1.926 1.925,1.926 C -0.862,1.926 0,1.063 0,0"
             style="fill:#231f20;fill-opacity:1;fill-rule:nonzero;stroke:none"
             id="path137"
             inkscape:connector-curvature="0" /></g><g
           id="g139"
           transform="translate(137.2973,40.8135)"><path
             d="m 0,0 c 0,-11.281 -9.146,-20.427 -20.427,-20.427 -11.282,0 -20.428,9.146 -20.428,20.427 0,11.282 9.146,20.428 20.428,20.428 C -9.146,20.428 0,11.282 0,0 Z"
             style="fill:none;stroke:#231f20;stroke-width:1.64999998;stroke-linecap:butt;stroke-linejoin:miter;stroke-miterlimit:10;stroke-dasharray:none;stroke-opacity:1"
             id="path141"
             inkscape:connector-curvature="0" /></g><g
           id="g143"
           transform="translate(122.9594,40.8135)"><path
             d="m 0,0 c 0,-3.363 -2.727,-6.089 -6.089,-6.089 -3.364,0 -6.09,2.726 -6.09,6.089 0,3.363 2.726,6.09 6.09,6.09 C -2.727,6.09 0,3.363 0,0"
             style="fill:#950915;fill-opacity:1;fill-rule:nonzero;stroke:none"
             id="path145"
             inkscape:connector-curvature="0" /></g><g
           id="g147"
           transform="translate(124.8847,50.2793)"><path
             d="m 0,0 c 0,-1.063 -0.862,-1.926 -1.925,-1.926 -1.064,0 -1.926,0.863 -1.926,1.926 0,1.062 0.862,1.925 1.926,1.925 C -0.862,1.925 0,1.062 0,0"
             style="fill:#231f20;fill-opacity:1;fill-rule:nonzero;stroke:none"
             id="path149"
             inkscape:connector-curvature="0" /></g><g
           id="g151"
           transform="translate(47.7587,57.5831)"><path
             d="m 0,0 h -1.68 c -0.61,0 -1.209,-0.02 -1.798,-0.058 -0.589,-0.041 -1.13,-0.08 -1.621,-0.118 -0.492,-0.041 -0.875,-0.08 -1.15,-0.118 v -33.01 c 0.196,-0.04 0.57,-0.069 1.12,-0.089 0.55,-0.019 1.121,-0.039 1.71,-0.058 0.589,-0.02 1.159,-0.04 1.71,-0.06 0.549,-0.019 0.922,-0.028 1.119,-0.028 2.751,0 5.059,0.471 6.926,1.414 1.866,0.943 3.36,2.211 4.48,3.802 1.12,1.592 1.916,3.42 2.388,5.482 0.471,2.063 0.707,4.195 0.707,6.396 0,1.924 -0.216,3.861 -0.648,5.805 -0.434,1.947 -1.179,3.704 -2.24,5.277 -1.062,1.571 -2.486,2.858 -4.274,3.86 C 4.96,-0.5 2.711,0 0,0 m -11.141,3.891 c 0.746,0.118 1.582,0.206 2.506,0.264 0.923,0.06 1.886,0.099 2.887,0.118 1.003,0.021 1.984,0.039 2.948,0.06 0.962,0.02 1.857,0.03 2.682,0.03 3.301,0 6.16,-0.511 8.576,-1.533 2.417,-1.023 4.412,-2.447 5.983,-4.273 1.572,-1.828 2.741,-4.019 3.508,-6.574 0.766,-2.554 1.149,-5.363 1.149,-8.428 0,-2.791 -0.364,-5.473 -1.091,-8.046 -0.727,-2.575 -1.877,-4.855 -3.448,-6.838 -1.571,-1.984 -3.616,-3.576 -6.13,-4.775 -2.515,-1.199 -5.561,-1.797 -9.137,-1.797 -0.628,0 -1.444,0.01 -2.445,0.029 -1.003,0.02 -2.034,0.059 -3.096,0.118 -1.061,0.059 -2.043,0.108 -2.947,0.147 -0.904,0.041 -1.553,0.099 -1.945,0.177 z"
             style="fill:#231f20;fill-opacity:1;fill-rule:nonzero;stroke:none"
             id="path153"
             inkscape:connector-curvature="0" /></g><g
           id="g155"
           transform="translate(104.5942,123.8995)"><path
             d="m 0,0 h -1.591 c -0.551,0 -1.082,-0.02 -1.592,-0.06 -0.511,-0.039 -0.993,-0.078 -1.444,-0.117 -0.453,-0.04 -0.816,-0.098 -1.091,-0.177 v -15.208 h 4.597 c 2.712,0 4.952,0.668 6.72,2.005 1.769,1.335 2.653,3.418 2.653,6.247 0,2.123 -0.728,3.871 -2.181,5.247 C 4.617,-0.687 2.593,0 0,0 m -10.611,3.36 c 1.494,0.275 3.213,0.492 5.158,0.649 1.946,0.156 3.724,0.235 5.335,0.235 1.806,0 3.527,-0.197 5.158,-0.59 1.63,-0.393 3.065,-1.042 4.303,-1.944 1.238,-0.905 2.229,-2.084 2.977,-3.537 0.745,-1.455 1.119,-3.223 1.119,-5.305 0,-3.222 -0.884,-5.836 -2.652,-7.84 -1.768,-2.005 -4.009,-3.34 -6.72,-4.008 l 2.829,-2.181 10.257,-16.328 h -5.718 l -11.376,17.802 -5.777,0.883 v -18.685 h -4.893 z"
             style="fill:#231f20;fill-opacity:1;fill-rule:nonzero;stroke:none"
             id="path157"
             inkscape:connector-curvature="0" /></g></g></g></g></svg>